#!OML:ASF F:\twosubjects\two\Thursday\Session 1\justin.ASF
:FULLY-SPECIFIED
:DEGREES
404
root 5.43101 16.8105 -8.1922 9.86245 15.0332 -2.00492
lowerback 18.7229 -0.820686 -5.88765
upperback 8.9434 -1.86691 2.15201
thorax -0.542473 -1.12704 5.98275
lowerneck 4.39773 -19.7877 -20.638
upperneck -18.5742 -25.7165 34.0578
head 1.73434 -14.0446 12.2564
rclavicle -3.57812e-015 4.77083e-015
rhumerus -43.6408 -43.3637 -1.06307
rradius 30.8626
rwrist -1.08181
rhand -39.896 18.4014
rfingers 7.12502
rthumb -12.8675 -11.1819
lclavicle -3.57812e-015 4.77083e-015
lhumerus -51.2351 6.74716 28.8655
lradius 25.5104
lwrist -39.6588
lhand -27.5412 51.4869
lfingers 7.12502
lthumb -0.942794 81.4646
rfemur -44.3182 -15.453 13.7397
rtibia 61.3456
rfoot -17.0264 0.848943
rtoes -19.043
lfemur -23.7388 6.49263 -8.74129
ltibia 43.59
lfoot -27.3855 1.81668
ltoes -23.3013
405
root 5.38263 16.8191 -8.19468 10.0592 15.5075 -1.75486
lowerback 18.6927 -0.798383 -6.28856
upperback 8.76222 -1.9005 2.27611
thorax -0.691308 -1.14764 6.3563
lowerneck 4.92293 -19.7895 -21.0351
upperneck -18.6874 -25.816 34.243
head 1.73699 -14.1263 12.4045
rclavicle 0 3.26007e-014
rhumerus -44.7187 -42.7801 -0.623095
rradius 30.707
rwrist -1.32524
rhand -39.5296 17.9194
rfingers 7.12502
rthumb -12.5143 -11.6859
lclavicle 0 3.26007e-014
lhumerus -51.1633 6.84749 28.6173
lradius 25.3526
lwrist -39.8998
lhand -26.9685 50.9507
lfingers 7.12502
lthumb -0.389637 80.9301
rfemur -44.3399 -15.2101 13.043
rtibia 61.0773
rfoot -16.734 -0.205489
rtoes -17.8727
lfemur -23.9477 6.43051 -8.83331
ltibia 43.3493
lfoot -27.0462 1.72314
ltoes -23.7183
406
root 5.3346 16.8276 -8.19413 10.0804 16.0643 -1.82741
lowerback 18.641 -0.885043 -6.23623
upperback 8.64078 -2.00064 2.34271
thorax -0.780283 -1.18989 6.41702
lowerneck 5.41451 -19.7563 -21.1416
upperneck -18.7103 -25.8521 34.3289
head 1.69285 -14.1812 12.4994
rclavicle -1.45113e-014 -1.74931e-014
rhumerus -45.8044 -42.0692 -0.546104
rradius 30.6344
rwrist -1.81372
rhand -39.4143 16.384
rfingers 7.12502
rthumb -12.4031 -13.2281
lclavicle -1.45113e-014 -1.74931e-014
lhumerus -51.1203 6.81997 28.3461
lradius 25.3726
lwrist -39.7219
lhand -27.6038 50.9142
lfingers 7.12502
lthumb -1.00329 80.8916
rfemur -44.102 -14.9986 12.6655
rtibia 60.7019
rfoot -16.539 -1.76534
rtoes -16.8981
lfemur -24.0669 6.46514 -8.56377
ltibia 43.1258
lfoot -26.6795 1.57317
ltoes -24.1112
407
root 5.29573 16.824 -8.18924 9.82996 16.4758 -2.17447
lowerback 18.6473 -0.903774 -5.74589
upperback 8.68377 -1.94294 2.3167
thorax -0.773186 -1.14683 6.09571
lowerneck 5.71398 -19.7648 -20.8216
upperneck -18.7489 -25.8646 34.404
head 1.60588 -14.235 12.5257
rclavicle 2.34566e-014 -2.78299e-015
rhumerus -47.2647 -41.7662 -0.288199
rradius 30.5102
rwrist -2.09467
rhand -39.3761 14.6626
rfingers 7.12502
rthumb -12.3663 -14.9517
lclavicle 2.34566e-014 -2.78299e-015
lhumerus -50.6658 6.63768 28.1802
lradius 25.3575
lwrist -39.0534
lhand -27.8599 50.5958
lfingers 7.12502
lthumb -1.25058 80.5718
rfemur -43.4651 -14.7585 12.5773
rtibia 60.1674
rfoot -16.3527 -3.83619
rtoes -16.0416
lfemur -23.9045 6.51131 -7.98067
ltibia 42.8869
lfoot -26.5626 1.12221
ltoes -23.814
408
root 5.25059 16.8218 -8.18367 9.75018 16.7822 -2.2373
lowerback 18.6527 -0.885204 -5.68467
upperback 8.68717 -1.90842 2.27875
thorax -0.782258 -1.12594 6.01343
lowerneck 6.32815 -19.6526 -20.6502
upperneck -19.3442 -25.664 34.8432
head 1.35612 -14.249 12.8118
rclavicle -6.14245e-014 9.93923e-015
rhumerus -48.5419 -41.7922 0.0144049
rradius 30.3234
rwrist -1.85562
rhand -38.9691 14.4683
rfingers 7.12502
rthumb -11.9739 -15.1693
lclavicle -6.14245e-014 9.93923e-015
lhumerus -50.3695 6.53109 27.9814
lradius 25.3562
lwrist -38.2666
lhand -28.0477 49.8031
lfingers 7.12502
lthumb -1.43195 79.7781
rfemur -42.9744 -14.4235 12.2294
rtibia 59.4716
rfoot -15.9487 -6.05936
rtoes -14.7116
lfemur -23.7766 6.39425 -7.68934
ltibia 42.5292
lfoot -26.5833 0.926898
ltoes -24.5808
409
root 5.19635 16.8405 -8.17849 9.92709 17.2234 -2.04451
lowerback 18.6435 -0.962218 -5.96297
upperback 8.54097 -2.05449 2.29895
thorax -0.898224 -1.19823 6.22453
lowerneck 6.97193 -19.4753 -20.9275
upperneck -19.8848 -25.439 35.3713
head 1.19339 -14.2327 13.1878
rclavicle 2.5842e-014 1.78906e-014
rhumerus -49.265 -41.6739 0.0893348
rradius 29.8979
rwrist -1.5534
rhand -38.8367 15.0977
rfingers 7.12502
rthumb -11.8462 -14.5473
lclavicle 2.5842e-014 1.78906e-014
lhumerus -50.4968 6.85693 27.5135
lradius 25.4244
lwrist -38.1419
lhand -28.3357 49.3807
lfingers 7.12502
lthumb -1.71017 79.3536
rfemur -42.6821 -14.0637 11.5975
rtibia 58.6024
rfoot -15.2873 -8.26768
rtoes -12.5782
lfemur -23.8521 6.04093 -7.66458
ltibia 42.0347
lfoot -26.3949 1.01765
ltoes -25.7938
410
root 5.14289 16.8647 -8.1636 9.88537 17.7831 -2.06215
lowerback 18.6702 -1.06322 -6.01608
upperback 8.46636 -2.19163 2.40621
thorax -0.963132 -1.26505 6.39887
lowerneck 6.54167 -19.7445 -21.1438
upperneck -19.063 -25.9384 34.9786
head 1.56817 -14.3685 12.8449
rclavicle -6.42074e-014 -6.75868e-015
rhumerus -50.0275 -41.5391 0.254523
rradius 29.4232
rwrist -1.3364
rhand -39.1808 14.877
rfingers 7.12502
rthumb -12.178 -14.7485
lclavicle -6.42074e-014 -6.75868e-015
lhumerus -50.4576 7.01071 27.3475
lradius 25.3747
lwrist -37.8291
lhand -28.1834 49.6757
lfingers 7.12502
lthumb -1.56302 79.6497
rfemur -42.0542 -13.728 11.1267
rtibia 57.6181
rfoot -14.5284 -10.5685
rtoes -10.1258
lfemur -23.696 5.76734 -7.38932
ltibia 41.4515
lfoot -26.1804 0.824219
ltoes -26.1368
411
root 5.09142 16.8827 -8.14555 9.57238 18.3614 -2.37762
lowerback 18.826 -1.1333 -5.76851
upperback 8.46243 -2.23992 2.60228
thorax -1.04346 -1.28259 6.48469
lowerneck 5.9386 -20.1344 -21.2506
upperneck -18.0332 -26.5983 34.3532
head 2.00222 -14.5527 12.346
rclavicle -8.54774e-015 2.38542e-015
rhumerus -51.0532 -41.6275 0.809449
rradius 28.9689
rwrist -0.735568
rhand -39.2768 14.3363
rfingers 7.12502
rthumb -12.2705 -15.2837
lclavicle -8.54774e-015 2.38542e-015
lhumerus -50.1641 7.0941 27.3578
lradius 25.1071
lwrist -37.3291
lhand -28.1841 49.6751
lfingers 7.12502
lthumb -1.56375 79.6492
rfemur -41.1638 -13.4415 10.9496
rtibia 56.5798
rfoot -13.9875 -12.6629
rtoes -5.73865
lfemur -23.3303 5.60932 -6.77885
ltibia 40.8473
lfoot -26.1157 0.326407
ltoes -25.7929
412
root 5.04232 16.894 -8.13722 9.56456 18.8699 -2.45585
lowerback 18.8244 -1.19676 -5.58991
upperback 8.40408 -2.28908 2.67083
thorax -1.10467 -1.29902 6.46658
lowerneck 5.90486 -20.2769 -21.0895
upperneck -17.9387 -26.7911 34.1907
head 2.02367 -14.637 12.218
rclavicle 5.96354e-016 -3.69739e-014
rhumerus -52.0014 -41.4812 1.11765
rradius 28.5969
rwrist -0.366792
rhand -38.9645 14.364
rfingers 7.12502
rthumb -11.9694 -15.2738
lclavicle 5.96354e-016 -3.69739e-014
lhumerus -49.7844 7.6032 26.9647
lradius 24.8823
lwrist -37.37
lhand -27.6377 48.9979
lfingers 7.12502
lthumb -1.03603 78.9751
rfemur -40.5868 -13.3429 10.5942
rtibia 55.496
rfoot -13.287 -14.3879
rtoes -1.53496
lfemur -23.2493 5.41582 -6.47588
ltibia 40.2906
lfoot -26.0177 0.00262312
ltoes -25.7084
413
root 4.99312 16.9053 -8.12927 9.8592 19.2611 -2.30263
lowerback 18.4997 -1.30255 -5.6473
upperback 8.35927 -2.42233 2.64449
thorax -0.963881 -1.37008 6.48102
lowerneck 6.24346 -20.0977 -21.0544
upperneck -18.3688 -26.5055 34.5697
head 1.85297 -14.5688 12.4747
rclavicle -5.76476e-015 8.74653e-015
rhumerus -52.6868 -41.3004 0.888944
rradius 28.5196
rwrist -0.341193
rhand -38.8605 14.0227
rfingers 7.12502
rthumb -11.8691 -15.6208
lclavicle -5.76476e-015 8.74653e-015
lhumerus -49.5877 7.81948 26.7146
lradius 24.9539
lwrist -36.9774
lhand -25.69 48.3369
lfingers 7.12502
lthumb 0.845193 78.315
rfemur -40.3182 -13.1728 10.0082
rtibia 54.3837
rfoot -12.3733 -16.1403
rtoes 2.1344
lfemur -23.4145 5.25758 -6.45345
ltibia 39.778
lfoot -25.9162 -0.270791
ltoes -26.0781
414
root 4.93865 16.9195 -8.10819 9.85449 19.6169 -2.36395
lowerback 18.363 -1.42444 -5.623
upperback 8.30445 -2.56984 2.68463
thorax -0.929078 -1.44353 6.53141
lowerneck 6.91681 -19.7607 -21.5292
upperneck -18.7841 -26.1117 35.2659
head 1.74519 -14.4689 12.9624
rclavicle 6.95746e-014 -6.59965e-014
rhumerus -53.273 -40.9884 0.575591
rradius 28.55
rwrist -0.347269
rhand -38.9026 13.4862
rfingers 7.12502
rthumb -11.9098 -16.155
lclavicle 6.95746e-014 -6.59965e-014
lhumerus -49.6395 7.70805 26.5339
lradius 25.0027
lwrist -36.4918
lhand -24.6675 47.7851
lfingers 7.12502
lthumb 1.83266 77.7569
rfemur -39.7014 -12.7724 9.59719
rtibia 53.2232
rfoot -11.8014 -17.9266
rtoes 5.80339
lfemur -23.3345 5.19267 -6.16374
ltibia 39.289
lfoot -25.7783 -0.664337
ltoes -26.2741
